<svg xmlns="http://www.w3.org/2000/svg" width="23" height="23" viewBox="0 0 23 23"><defs><style>.a,.b{fill:#fff;}.a{opacity:0.8;}</style></defs><g transform="translate(-0.006)"><path class="a" d="M7.039,9.665,11.506,5.2l4.469,4.469,2.6-2.6L11.506,0,4.44,7.066l2.6,2.6M.006,11.5l2.6-2.6,2.6,2.6L2.6,14.1Zm7.033,1.836L11.506,17.8l4.469-4.469,2.6,2.6h0L11.506,23,4.44,15.934l0,0,2.6-2.6M17.808,11.5l2.6-2.6,2.6,2.6-2.6,2.6Z"/><path class="b" d="M774.616,772.583h0l-2.033-2.033-1.5,1.5h0l-.173.173-.356.356,0,0,0,0,2.031,2.031,2.033-2.033h0" transform="translate(-761.078 -761.084)"/></g></svg>