<svg xmlns="http://www.w3.org/2000/svg" xmlns:xlink="http://www.w3.org/1999/xlink" width="20" height="20" viewBox="0 0 20 20"><defs><style>.a{fill:url(#a);}</style><linearGradient id="a" x1="0.5" x2="0.5" y2="1" gradientUnits="objectBoundingBox"><stop offset="0" stop-color="#a3dce9"/><stop offset="1" stop-color="#91a4d2"/></linearGradient></defs><path class="a" d="M8.832,3A5.84,5.84,0,0,0,3,8.835v8.333A5.84,5.84,0,0,0,8.835,23h8.333A5.84,5.84,0,0,0,23,17.165V8.832A5.84,5.84,0,0,0,17.165,3Zm10,3.333A.833.833,0,1,1,18,7.167.834.834,0,0,1,18.833,6.333ZM13,8a5,5,0,1,1-5,5A5.005,5.005,0,0,1,13,8Zm0,1.667A3.333,3.333,0,1,0,16.333,13,3.333,3.333,0,0,0,13,9.667Z" transform="translate(-3 -3)"/></svg>