<svg xmlns="http://www.w3.org/2000/svg" xmlns:xlink="http://www.w3.org/1999/xlink" width="400" height="400" viewBox="0 0 400 400"><defs><style>.a{fill:#fff;}.b{clip-path:url(#c);}.c{filter:url(#l);}.d{filter:url(#j);}.e{filter:url(#h);}.f{filter:url(#f);}.g{filter:url(#d);}.h{filter:url(#a);}</style><filter id="a" x="-9" y="-6" width="418" height="418" filterUnits="userSpaceOnUse"><feOffset dy="3" input="SourceAlpha"/><feGaussianBlur stdDeviation="3" result="b"/><feFlood flood-color="#6a71b5"/><feComposite operator="in" in2="b"/><feComposite in="SourceGraphic"/></filter><clipPath id="c"><g class="h" transform="matrix(1, 0, 0, 1, 0, 0)"><circle class="a" cx="200" cy="200" r="200" transform="translate(520 283)"/></g></clipPath><filter id="d" x="-74.7" y="186.5" width="288.2" height="326.133" filterUnits="userSpaceOnUse"><feOffset input="SourceAlpha"/><feGaussianBlur stdDeviation="4.5" result="e"/><feFlood flood-opacity="0.502"/><feComposite operator="in" in2="e"/><feComposite in="SourceGraphic"/></filter><filter id="f" x="39.833" y="187" width="351.267" height="301.1" filterUnits="userSpaceOnUse"><feOffset input="SourceAlpha"/><feGaussianBlur stdDeviation="4.5" result="g"/><feFlood flood-color="#a3dce9"/><feComposite operator="in" in2="g"/><feComposite in="SourceGraphic"/></filter><filter id="h" x="186.5" y="114.433" width="296.333" height="335.267" filterUnits="userSpaceOnUse"><feOffset input="SourceAlpha"/><feGaussianBlur stdDeviation="4.5" result="i"/><feFlood flood-color="#a3dce9"/><feComposite operator="in" in2="i"/><feComposite in="SourceGraphic"/></filter><filter id="j" x="186.5" y="-50.9" width="282.467" height="264.9" filterUnits="userSpaceOnUse"><feOffset input="SourceAlpha"/><feGaussianBlur stdDeviation="4.5" result="k"/><feFlood flood-color="#a3dce9"/><feComposite operator="in" in2="k"/><feComposite in="SourceGraphic"/></filter><filter id="l" x="-82.833" y="-62.633" width="331.667" height="392.333" filterUnits="userSpaceOnUse"><feOffset input="SourceAlpha"/><feGaussianBlur stdDeviation="4.5" result="m"/><feFlood flood-color="#a3dce9"/><feComposite operator="in" in2="m"/><feComposite in="SourceGraphic"/></filter></defs><g class="b" transform="translate(-520 -283)"><g class="g" transform="matrix(1, 0, 0, 1, 520, 283)"><path class="a" d="M720,483,585.067,782.133,458.8,591.733Z" transform="translate(-520 -283)"/></g><g class="f" transform="matrix(1, 0, 0, 1, 520, 283)"><path class="a" d="M720,483.5,897.6,757.6H573.333Z" transform="translate(-520 -283)"/></g><g class="e" transform="matrix(1, 0, 0, 1, 520, 283)"><path class="a" d="M720,483l269.333-72.067L968,633.867,841.067,719.2Z" transform="translate(-520 -283)"/></g><g class="d" transform="matrix(1, 0, 0, 1, 520, 283)"><path class="a" d="M720,483.5V245.6l222.4,55.467,33.067,137.6Z" transform="translate(-520 -283)"/></g><g class="c" transform="matrix(1, 0, 0, 1, 520, 283)"><path class="a" d="M720,483,467.333,599.2,450.667,318.133l297.6-84.267h7.067Z" transform="translate(-520 -283)"/></g></g></svg>