<svg xmlns="http://www.w3.org/2000/svg" xmlns:xlink="http://www.w3.org/1999/xlink" width="127.614" height="32" viewBox="0 0 127.614 32"><defs><style>.a{fill:url(#a);}.b{fill:#fff;}.c{fill:url(#b);}.d{fill:#7e9cd1;}.e{fill:#658fca;}</style><linearGradient id="a" x1="0.263" y1="0.238" x2="0.775" y2="0.805" gradientUnits="objectBoundingBox"><stop offset="0" stop-color="#a3dce9"/><stop offset="1" stop-color="#91a4d2"/></linearGradient><linearGradient id="b" x1="0.957" y1="1.188" x2="0.012" y2="0.194" gradientUnits="objectBoundingBox"><stop offset="0.29" stop-color="#6a71b5"/><stop offset="0.9" stop-color="#88cbee"/></linearGradient></defs><g transform="translate(0.545 0.057)"><g transform="translate(-0.159 -0.39)"><circle class="a" cx="16" cy="16" r="16" transform="translate(-0.386 0.333)"/><path class="b" d="M943.663,809.261c3.217-1.285,6.794-3.55,6.819-9.815,0-.3.013-.57,0-.8,0-.153,0-.707-.005-1.109v-.709a.091.091,0,0,1,.17-.045l.478.837a.091.091,0,0,0,.079.044h1a.88.88,0,0,0,.762-1.32l-3.656-6.333a.913.913,0,0,0-1.562,0l-3.656,6.334a.88.88,0,0,0,.762,1.32h1.006a.091.091,0,0,0,.079-.044l.471-.823a.091.091,0,0,1,.17.044v.846h0a5.747,5.747,0,0,1-.22,1.578h0v0l-.028.092-.013.042c-.006.019-.012.039-.019.058l-.015.044-.019.056-.015.043c-.008.022-.016.044-.024.065l-.017.044-.03.076-.017.041-.022.054-.018.043-.024.053-.018.041-.031.065-.022.046-.033.067-.02.039-.027.051-.022.04-.028.051-.021.038-.038.067-.024.042-.036.06-.022.037-.031.049-.024.038-.032.049-.022.035-.049.072-.022.032-.039.056-.025.035c-.011.016-.022.031-.034.047l-.026.035-.036.048-.024.032-.059.074-.021.025-.042.052-.027.032-.038.044-.028.032-.041.047-.028.027-.064.071-.022.024-.046.049-.028.03-.042.043-.029.03-.046.046-.025.025-.069.067-.024.022-.049.047-.03.027-.045.042-.029.027-.051.044-.022.021-.073.064-.024.021-.053.045-.03.025-.049.04-.03.024-.057.044-.022.017-.077.06-.026.019-.055.042-.03.022-.053.039-.03.022-.064.044-.018.013-.081.057-.026.018-.058.039-.03.021-.056.037-.029.019-.07.044-.014.009-.084.053-.027.017-.059.037-.031.019-.059.035-.028.017-.077.046-.009.005-.086.05-.028.016-.061.034-.031.018-.06.033-.029.016-.085.046h0c-.04.022-.079.042-.119.063l-.006,0-.006,0-.111.057-.009,0q-.183.093-.368.178l0,0,0,0-.058.027-.058.027-.007,0-.106.047-.265.115h0l-.06.025-.06.025,0,0-.124.05q-.185.074-.369.141h0q-.2.072-.39.138l-.1.032h0l-.239.078-.118.037-.117.036h0c-.156.047-.307.091-.456.131-.3.082-.577.151-.836.21h0c-.129.029-.253.056-.37.08h0l-.043.009-.043.009h0l-.115.022h0l-.111.022h0l-.015,0h0l-.074.014h0l-.211.037h0l-.061.01h0l-.173.028h0l-.047.007h-.007l-.045.007h0c-.188.028-.293.039-.293.039l2.753,1.73,1.6,1.005h0l.847.533a6.972,6.972,0,0,0,1.415.924h.055Z" transform="translate(-925.176 -781.286)"/><path class="c" d="M503.089,624.314a14.1,14.1,0,0,1-15.131-15.131,14.248,14.248,0,0,1,1.993-6.513A14.335,14.335,0,1,0,509.6,622.321,14.249,14.249,0,0,1,503.089,624.314Z" transform="translate(-481.18 -598.539)"/><ellipse class="d" cx="1.157" cy="1.157" rx="1.157" ry="1.157" transform="translate(19.014 4.582)"/><ellipse class="d" cx="2.581" cy="2.581" rx="2.581" ry="2.581" transform="translate(10.179 6.223)"/><ellipse class="d" cx="0.682" cy="0.682" rx="0.682" ry="0.682" transform="translate(15.372 3.59)"/></g><g transform="translate(40.16 9.921)"><path class="e" d="M2138.118,904.174l1.831-10.423a.8.8,0,0,1,.883-.751h.833a.906.906,0,0,1,.932.684l3.04,9.355,3.04-9.356a.9.9,0,0,1,.931-.684h.834a.8.8,0,0,1,.882.75l1.83,10.423c.1.584-.18.9-.736.9h-.261a.813.813,0,0,1-.882-.75l-1.553-8.722-2.909,8.789a.906.906,0,0,1-.932.684h-.49a.9.9,0,0,1-.932-.684l-2.909-8.789L2140,904.323a.813.813,0,0,1-.882.75h-.262C2138.3,905.075,2138.021,904.758,2138.118,904.174Z" transform="translate(-2138.099 -891.942)"/><path class="e" d="M2957.44,1006.452c0-3.518,2.626-5.072,5.307-5.072s5.324,1.554,5.324,5.072c0,3.552-2.625,5.106-5.306,5.106C2960.066,1011.558,2957.44,1010,2957.44,1006.452Zm8.574,0a3.265,3.265,0,1,0-3.25,3.467A3.151,3.151,0,0,0,2966.014,1006.452Z" transform="translate(-2941.426 -998.203)"/><path class="e" d="M3559.58,1006.452c0-3.518,2.625-5.072,5.306-5.072s5.325,1.554,5.325,5.072c0,3.552-2.626,5.106-5.306,5.106C3562.206,1011.558,3559.58,1010,3559.58,1006.452Zm8.574,0a3.265,3.265,0,1,0-3.25,3.467A3.151,3.151,0,0,0,3568.155,1006.452Z" transform="translate(-3531.798 -998.203)"/><path class="e" d="M4185.892,1002.25c2.9,0,4.242,1.554,4.242,4.645v4.44a.8.8,0,0,1-.918.854H4189a.8.8,0,0,1-.919-.854v-4.287c0-2.135-.881-3.142-2.827-3.142-1.983,0-2.792,1.212-2.792,3.365v4.065a.8.8,0,0,1-.918.854h-.22a.805.805,0,0,1-.919-.854v-8.062a.8.8,0,0,1,.919-.854h.22a.8.8,0,0,1,.918.854v.971a3.511,3.511,0,0,1,3.434-2Z" transform="translate(-4140.484 -999.057)"/><path class="e" d="M4779.883,904.127c.484.667.322,1.016-.574,1.016h-.395a1.224,1.224,0,0,1-1.075-.55l-2.474-3.5q-.354.015-.735.015h-1.882v3.2a.786.786,0,0,1-.9.834h-.305a.785.785,0,0,1-.9-.834V893.9a.785.785,0,0,1,.9-.834h3.12c4.034,0,5.737,1.084,5.737,3.986a3.509,3.509,0,0,1-2.939,3.747Zm-1.578-6.987c0-1.935-1.237-2.4-3.694-2.4h-1.882v4.753h1.883c2.457,0,3.694-.417,3.694-2.351Z" transform="translate(-4719.199 -892.01)"/><path class="e" d="M5342.771,839.875c0-.649.514-1.025,1.211-1.025a1.039,1.039,0,1,1,0,2.05C5343.285,840.9,5342.771,840.524,5342.771,839.875Zm.173,11.254v-8.061a.8.8,0,0,1,.9-.854h.234a.8.8,0,0,1,.9.854v8.061a.8.8,0,0,1-.9.854h-.234A.8.8,0,0,1,5342.944,851.129Z" transform="translate(-5280.137 -838.85)"/><path class="e" d="M5537.175,1012.479a6.242,6.242,0,0,1-4.5-1.691c-.376-.442-.191-.9.422-1.075l.184-.051c.4-.113.679-.1,1.212.343a4.178,4.178,0,0,0,2.683.835c1.528,0,2.438-.507,2.438-1.366,0-2.254-6.81-.464-6.81-4.27,0-1.8,1.955-2.834,4.21-2.834a6.185,6.185,0,0,1,3.979,1.4c.432.42.283.893-.312,1.058l-.184.051c-.5.138-.749-.031-1.23-.3a4.5,4.5,0,0,0-2.219-.637c-1.324,0-2.223.407-2.223,1.174,0,2.184,6.863.355,6.863,4.308,0,1.815-1.885,3.057-4.513,3.057Z" transform="translate(-5466.137 -999.174)"/><path class="e" d="M6046.11,1003.985a4.949,4.949,0,0,1,3.83-6.262,4.743,4.743,0,0,1,6.158,3.245c.163.54-.1.91-.668,1.061l-7.205,1.91c.556,1.814,2.057,2.529,4.025,2.007a3.6,3.6,0,0,0,2.222-1.437c.308-.417.486-.747,1.014-.763l.226-.007c.661-.016.869.265.653.816a5.069,5.069,0,0,1-3.737,2.951C6049.469,1008.342,6046.895,1006.94,6046.11,1003.985Zm7.941-3.147c-.54-1.465-1.895-2.13-3.687-1.655a2.906,2.906,0,0,0-2.472,3.288Z" transform="translate(-5969.539 -994.4)"/></g></g></svg>