<svg xmlns="http://www.w3.org/2000/svg" xmlns:xlink="http://www.w3.org/1999/xlink" width="114.89" height="114.012" viewBox="0 0 114.89 114.012"><defs><style>.a{fill:#a3dce9;}.b{fill:#fff;}.c{filter:url(#c);}.d{filter:url(#a);}</style><filter id="a" x="0" y="0" width="114.89" height="110.006" filterUnits="userSpaceOnUse"><feOffset dx="3" dy="2" input="SourceAlpha"/><feGaussianBlur stdDeviation="3" result="b"/><feFlood flood-opacity="0.38"/><feComposite operator="in" in2="b"/><feComposite in="SourceGraphic"/></filter><filter id="c" x="13.402" y="21.475" width="95.828" height="92.537" filterUnits="userSpaceOnUse"><feOffset input="SourceAlpha"/><feGaussianBlur stdDeviation="5" result="d"/><feFlood flood-color="#fff"/><feComposite operator="in" in2="d"/><feComposite in="SourceGraphic"/></filter></defs><g transform="translate(-410.077 -440.703) rotate(14)"><g class="d" transform="matrix(0.97, -0.24, 0.24, 0.97, 504.51, 328.41)"><path class="a" d="M38.92.09,77.715,66.807,1.36,66.718A192.773,192.773,0,0,1,17.538,30.626,189.263,189.263,0,0,1,38.92.09Z" transform="translate(31.93 6.36) rotate(24)"/></g><g class="c" transform="matrix(0.97, -0.24, 0.24, 0.97, 504.51, 328.41)"><path class="b" d="M27.172,1.157,53.58,46.523,1.721,46.478A130.156,130.156,0,0,1,12.428,21.432,128.831,128.831,0,0,1,27.172,1.157Z" transform="translate(45.75 34.72) rotate(24)"/></g></g></svg>