<svg xmlns="http://www.w3.org/2000/svg" width="384.244" height="383.727" viewBox="0 0 384.244 383.727"><defs><style>.a{fill:#a3dce9;}</style></defs><g transform="matrix(0.995, 0.105, -0.105, 0.995, -470.278, -360.951)"><circle class="a" cx="4" cy="4" r="4" transform="translate(713 288)"/><circle class="a" cx="4" cy="4" r="4" transform="translate(762 295)"/><circle class="a" cx="4" cy="4" r="4" transform="translate(664 295)"/><circle class="a" cx="4" cy="4" r="4" transform="translate(805 312)"/><circle class="a" cx="4" cy="4" r="4" transform="translate(621 312)"/><circle class="a" cx="4" cy="4" r="4" transform="translate(841 338)"/><circle class="a" cx="4" cy="4" r="4" transform="translate(585 338)"/><circle class="a" cx="4" cy="4" r="4" transform="translate(869 370)"/><circle class="a" cx="4" cy="4" r="4" transform="translate(557 370)"/><circle class="a" cx="4" cy="4" r="4" transform="translate(887 406)"/><circle class="a" cx="4" cy="4" r="4" transform="translate(539 406)"/><circle class="a" cx="4" cy="4" r="4" transform="translate(898 445)"/><circle class="a" cx="4" cy="4" r="4" transform="translate(528 445)"/><circle class="a" cx="4" cy="4" r="4" transform="translate(901 488)"/><circle class="a" cx="4" cy="4" r="4" transform="translate(525 488)"/><circle class="a" cx="4" cy="4" r="4" transform="translate(894 527)"/><circle class="a" cx="4" cy="4" r="4" transform="translate(532 527)"/><circle class="a" cx="4" cy="4" r="4" transform="translate(880 565)"/><circle class="a" cx="4" cy="4" r="4" transform="translate(546 565)"/><circle class="a" cx="4" cy="4" r="4" transform="translate(859 596)"/><circle class="a" cx="4" cy="4" r="4" transform="translate(567 596)"/><circle class="a" cx="4" cy="4" r="4" transform="translate(831 623)"/><circle class="a" cx="4" cy="4" r="4" transform="translate(595 623)"/><circle class="a" cx="4" cy="4" r="4" transform="translate(797 645)"/><circle class="a" cx="4" cy="4" r="4" transform="translate(629 645)"/><circle class="a" cx="4" cy="4" r="4" transform="translate(759 659)"/><circle class="a" cx="4" cy="4" r="4" transform="translate(667 659)"/><circle class="a" cx="4" cy="4" r="4" transform="translate(713 665)"/></g></svg>