<svg xmlns="http://www.w3.org/2000/svg" xmlns:xlink="http://www.w3.org/1999/xlink" width="22" height="18.314" viewBox="0 0 22 18.314"><defs><style>.a{fill:url(#a);}</style><linearGradient id="a" x1="0.5" x2="0.5" y2="1" gradientUnits="objectBoundingBox"><stop offset="0" stop-color="#a3dce9"/><stop offset="1" stop-color="#91a4d2"/></linearGradient></defs><path class="a" d="M4.56,16.873c6.77-2.978,15.53-6.609,16.74-7.112,3.172-1.315,4.145-1.063,3.66,1.85-.349,2.094-1.354,9.026-2.156,13.34-.476,2.559-1.543,2.862-3.221,1.755-.807-.533-4.88-3.226-5.764-3.858-.807-.576-1.92-1.27-.524-2.635.5-.486,3.752-3.595,6.289-6.015a.376.376,0,0,0-.469-.585c-3.419,2.267-8.159,5.414-8.762,5.824A3.509,3.509,0,0,1,7,19.888c-1.187-.341-2.347-.748-2.8-.9C2.46,18.389,2.872,17.616,4.56,16.873Z" transform="translate(-3.078 -9)"/></svg>