<svg xmlns="http://www.w3.org/2000/svg" xmlns:xlink="http://www.w3.org/1999/xlink" width="21" height="17.065" viewBox="0 0 21 17.065"><defs><style>.a{fill:url(#a);}</style><linearGradient id="a" x1="0.5" x2="0.5" y2="1" gradientUnits="objectBoundingBox"><stop offset="0" stop-color="#a3dce9"/><stop offset="1" stop-color="#91a4d2"/></linearGradient></defs><path class="a" d="M23,6.456a8.6,8.6,0,0,1-2.475.678,4.315,4.315,0,0,0,1.894-2.383A8.638,8.638,0,0,1,19.682,5.8,4.309,4.309,0,0,0,12.23,8.744a4.356,4.356,0,0,0,.111.981,12.231,12.231,0,0,1-8.88-4.5,4.316,4.316,0,0,0,1.333,5.752,4.3,4.3,0,0,1-1.951-.539v.054A4.309,4.309,0,0,0,6.3,14.715a4.31,4.31,0,0,1-1.136.151,4.387,4.387,0,0,1-.81-.077,4.314,4.314,0,0,0,4.025,2.992A8.693,8.693,0,0,1,2,19.566,12.2,12.2,0,0,0,8.6,21.5,12.173,12.173,0,0,0,20.86,9.243q0-.28-.012-.557A8.767,8.767,0,0,0,23,6.456Z" transform="translate(-1.999 -4.436)"/></svg>