<svg xmlns="http://www.w3.org/2000/svg" xmlns:xlink="http://www.w3.org/1999/xlink" width="400" height="400" viewBox="0 0 400 400"><defs><style>.a{fill:#fff;}.b{clip-path:url(#c);}.c,.g,.i,.k{fill:#6a71b5;font-family:BotrioRegular, Botrio;}.c{font-size:40px;}.d{font-family:SegoeUI, Segoe UI;}.e,.f,.h,.j{fill:#91a4d2;font-family:Montserrat-Bold, Montserrat;font-weight:700;opacity:0.69;}.e{font-size:20px;}.f{font-size:17px;}.g{font-size:34px;}.h{font-size:13px;}.i{font-size:28px;}.j{font-size:11px;}.k{font-size:24px;}.l{filter:url(#l);}.m{filter:url(#j);}.n{filter:url(#h);}.o{filter:url(#f);}.p{filter:url(#d);}.q{filter:url(#a);}</style><filter id="a" x="-9" y="-6" width="418" height="418" filterUnits="userSpaceOnUse"><feOffset dy="3" input="SourceAlpha"/><feGaussianBlur stdDeviation="3" result="b"/><feFlood flood-color="#6a71b5"/><feComposite operator="in" in2="b"/><feComposite in="SourceGraphic"/></filter><clipPath id="c"><g class="q" transform="matrix(1, 0, 0, 1, 0, 0)"><circle class="a" cx="200" cy="200" r="200" transform="translate(520 283)"/></g></clipPath><filter id="d" x="-74.7" y="186.5" width="288.2" height="326.133" filterUnits="userSpaceOnUse"><feOffset input="SourceAlpha"/><feGaussianBlur stdDeviation="4.5" result="e"/><feFlood flood-opacity="0.502"/><feComposite operator="in" in2="e"/><feComposite in="SourceGraphic"/></filter><filter id="f" x="39.833" y="187" width="351.267" height="301.1" filterUnits="userSpaceOnUse"><feOffset input="SourceAlpha"/><feGaussianBlur stdDeviation="4.5" result="g"/><feFlood flood-color="#a3dce9"/><feComposite operator="in" in2="g"/><feComposite in="SourceGraphic"/></filter><filter id="h" x="186.5" y="114.433" width="296.333" height="335.267" filterUnits="userSpaceOnUse"><feOffset input="SourceAlpha"/><feGaussianBlur stdDeviation="4.5" result="i"/><feFlood flood-color="#a3dce9"/><feComposite operator="in" in2="i"/><feComposite in="SourceGraphic"/></filter><filter id="j" x="186.5" y="-50.9" width="282.467" height="264.9" filterUnits="userSpaceOnUse"><feOffset input="SourceAlpha"/><feGaussianBlur stdDeviation="4.5" result="k"/><feFlood flood-color="#a3dce9"/><feComposite operator="in" in2="k"/><feComposite in="SourceGraphic"/></filter><filter id="l" x="-82.833" y="-62.633" width="331.667" height="392.333" filterUnits="userSpaceOnUse"><feOffset input="SourceAlpha"/><feGaussianBlur stdDeviation="4.5" result="m"/><feFlood flood-color="#a3dce9"/><feComposite operator="in" in2="m"/><feComposite in="SourceGraphic"/></filter></defs><g transform="translate(-519.93 -283.015)"><g class="b" transform="translate(-0.07 0.015)"><g class="p" transform="matrix(1, 0, 0, 1, 520, 283)"><path class="a" d="M720,483,585.067,782.133,458.8,591.733Z" transform="translate(-520 -283)"/></g><g class="o" transform="matrix(1, 0, 0, 1, 520, 283)"><path class="a" d="M720,483.5,897.6,757.6H573.333Z" transform="translate(-520 -283)"/></g><g class="n" transform="matrix(1, 0, 0, 1, 520, 283)"><path class="a" d="M720,483l269.333-72.067L968,633.867,841.067,719.2Z" transform="translate(-520 -283)"/></g><g class="m" transform="matrix(1, 0, 0, 1, 520, 283)"><path class="a" d="M720,483.5V245.6l222.4,55.467,33.067,137.6Z" transform="translate(-520 -283)"/></g><g class="l" transform="matrix(1, 0, 0, 1, 520, 283)"><path class="a" d="M720,483,467.333,599.2,450.667,318.133l297.6-84.267h7.067Z" transform="translate(-520 -283)"/></g></g><g transform="translate(0 -5)"><text class="c" transform="translate(583 435)"><tspan x="0" y="0">26</tspan><tspan class="d" y="0">%</tspan></text><text class="e" transform="translate(583 464)"><tspan x="0" y="0">0xc3f..</tspan></text></g><g transform="translate(15.467 2.297)"><text class="f" transform="translate(754.533 431.703)"><tspan x="0" y="0">0xc3f..</tspan></text><text class="g" transform="translate(750.533 406.703)"><tspan x="0" y="0">24</tspan><tspan class="d" y="0">%</tspan></text></g><g transform="translate(11.104 -3)"><text class="f" transform="translate(777.896 560)"><tspan x="0" y="0">0xc3f..</tspan></text><text class="g" transform="translate(773.896 535)"><tspan x="0" y="0">24</tspan><tspan class="d" y="0">%</tspan></text></g><g transform="translate(7 10.739)"><text class="h" transform="translate(683 623.261)"><tspan x="0" y="0">0xc3f..</tspan></text><text class="i" transform="translate(678 603.261)"><tspan x="0" y="0">20</tspan><tspan class="d" y="0">%</tspan></text></g><g transform="translate(8.333 13.52)"><text class="j" transform="translate(599.667 574.48)"><tspan x="0" y="0">0xc3f..</tspan></text><text class="k" transform="translate(597.667 560.48)"><tspan x="0" y="0">6</tspan><tspan class="d" y="0">%</tspan></text></g></g></svg>