<svg xmlns="http://www.w3.org/2000/svg" width="422.14" height="422.14" viewBox="0 0 422.14 422.14"><defs><style>.a{fill:#a3dce9;}.b{fill:none;stroke-linecap:round;}.c,.d{stroke:none;}.d{fill:#fff;}</style></defs><g transform="translate(-508.93 -271.93)"><g transform="matrix(0.995, 0.105, -0.105, 0.995, 57.154, -68.315)"><circle class="a" cx="4" cy="4" r="4" transform="translate(713 288)"/><circle class="a" cx="4" cy="4" r="4" transform="translate(762 295)"/><circle class="a" cx="4" cy="4" r="4" transform="translate(664 295)"/><circle class="a" cx="4" cy="4" r="4" transform="translate(805 312)"/><circle class="a" cx="4" cy="4" r="4" transform="translate(621 312)"/><circle class="a" cx="4" cy="4" r="4" transform="translate(841 338)"/><circle class="a" cx="4" cy="4" r="4" transform="translate(585 338)"/><circle class="a" cx="4" cy="4" r="4" transform="translate(869 370)"/><circle class="a" cx="4" cy="4" r="4" transform="translate(557 370)"/><circle class="a" cx="4" cy="4" r="4" transform="translate(887 406)"/><circle class="a" cx="4" cy="4" r="4" transform="translate(539 406)"/><circle class="a" cx="4" cy="4" r="4" transform="translate(898 445)"/><circle class="a" cx="4" cy="4" r="4" transform="translate(528 445)"/><circle class="a" cx="4" cy="4" r="4" transform="translate(901 488)"/><circle class="a" cx="4" cy="4" r="4" transform="translate(525 488)"/><circle class="a" cx="4" cy="4" r="4" transform="translate(894 527)"/><circle class="a" cx="4" cy="4" r="4" transform="translate(532 527)"/><circle class="a" cx="4" cy="4" r="4" transform="translate(880 565)"/><circle class="a" cx="4" cy="4" r="4" transform="translate(546 565)"/><circle class="a" cx="4" cy="4" r="4" transform="translate(859 596)"/><circle class="a" cx="4" cy="4" r="4" transform="translate(567 596)"/><circle class="a" cx="4" cy="4" r="4" transform="translate(831 623)"/><circle class="a" cx="4" cy="4" r="4" transform="translate(595 623)"/><circle class="a" cx="4" cy="4" r="4" transform="translate(797 645)"/><circle class="a" cx="4" cy="4" r="4" transform="translate(629 645)"/><circle class="a" cx="4" cy="4" r="4" transform="translate(759 659)"/><circle class="a" cx="4" cy="4" r="4" transform="translate(667 659)"/><circle class="a" cx="4" cy="4" r="4" transform="translate(713 665)"/></g><g class="b" transform="translate(508.93 271.93)"><path class="c" d="M211.07,0C327.641,0,422.14,94.5,422.14,211.07s-94.5,211.07-211.07,211.07S0,327.641,0,211.07,94.5,0,211.07,0Z"/><path class="d" d="M 211.0700225830078 3.999969482421875 C 197.0179595947266 3.999969482421875 182.9759063720703 5.4154052734375 169.3339691162109 8.20697021484375 C 156.0406799316406 10.9271240234375 142.965087890625 14.98602294921875 130.4702453613281 20.27090454101563 C 118.2013549804688 25.46023559570313 106.36767578125 31.88336181640625 95.2979736328125 39.36190795898438 C 84.3323974609375 46.7701416015625 74.020751953125 55.27801513671875 64.64935302734375 64.64935302734375 C 55.27801513671875 74.020751953125 46.7701416015625 84.3323974609375 39.36190795898438 95.2979736328125 C 31.88336181640625 106.36767578125 25.46023559570313 118.2013549804688 20.27090454101563 130.4702453613281 C 14.98602294921875 142.965087890625 10.9271240234375 156.0406799316406 8.20697021484375 169.3339691162109 C 5.4154052734375 182.9759063720703 3.999969482421875 197.0179595947266 3.999969482421875 211.0700225830078 C 3.999969482421875 225.1220855712891 5.4154052734375 239.1641387939453 8.20697021484375 252.8060760498047 C 10.9271240234375 266.099365234375 14.98602294921875 279.1749877929688 20.27090454101563 291.6697998046875 C 25.46023559570313 303.9386901855469 31.88336181640625 315.7723388671875 39.36190795898438 326.8420715332031 C 46.7701416015625 337.8076171875 55.27801513671875 348.1192932128906 64.64935302734375 357.4906311035156 C 74.020751953125 366.8619689941406 84.3323974609375 375.3699035644531 95.2979736328125 382.778076171875 C 106.36767578125 390.2566223144531 118.2013549804688 396.6798095703125 130.4702453613281 401.8690795898438 C 142.965087890625 407.1539611816406 156.0406799316406 411.2128601074219 169.3339691162109 413.9330139160156 C 182.9759063720703 416.7245788574219 197.0179595947266 418.1400146484375 211.0700225830078 418.1400146484375 C 225.1220855712891 418.1400146484375 239.1641387939453 416.7245788574219 252.8060760498047 413.9330139160156 C 266.099365234375 411.2128601074219 279.1749877929688 407.1539611816406 291.6697998046875 401.8690795898438 C 303.9386901855469 396.6798095703125 315.7723388671875 390.2566223144531 326.8420715332031 382.778076171875 C 337.8076171875 375.3699035644531 348.1192932128906 366.8619689941406 357.4906311035156 357.4906311035156 C 366.8619689941406 348.1192932128906 375.3699035644531 337.8076171875 382.778076171875 326.8420715332031 C 390.2566223144531 315.7723388671875 396.6798095703125 303.9386901855469 401.8690795898438 291.6697998046875 C 407.1539611816406 279.1749877929688 411.2128601074219 266.099365234375 413.9330139160156 252.8060760498047 C 416.7245788574219 239.1641387939453 418.1400146484375 225.1220855712891 418.1400146484375 211.0700225830078 C 418.1400146484375 197.0179595947266 416.7245788574219 182.9759063720703 413.9330139160156 169.3339691162109 C 411.2128601074219 156.0406799316406 407.1539611816406 142.965087890625 401.8690795898438 130.4702453613281 C 396.6798095703125 118.2013549804688 390.2566223144531 106.36767578125 382.778076171875 95.2979736328125 C 375.3699035644531 84.3323974609375 366.8619689941406 74.020751953125 357.4906311035156 64.64935302734375 C 348.1192932128906 55.27801513671875 337.8076171875 46.7701416015625 326.8420715332031 39.36190795898438 C 315.7723388671875 31.88336181640625 303.9386901855469 25.46023559570313 291.6697998046875 20.27090454101563 C 279.1749877929688 14.98602294921875 266.099365234375 10.9271240234375 252.8060760498047 8.20697021484375 C 239.1641387939453 5.4154052734375 225.1220855712891 3.999969482421875 211.0700225830078 3.999969482421875 M 211.0700225830078 -3.0517578125e-05 C 327.6408081054688 -3.0517578125e-05 422.1400146484375 94.49923706054688 422.1400146484375 211.0700225830078 C 422.1400146484375 327.6408081054688 327.6408081054688 422.1400146484375 211.0700225830078 422.1400146484375 C 94.49923706054688 422.1400146484375 -3.0517578125e-05 327.6408081054688 -3.0517578125e-05 211.0700225830078 C -3.0517578125e-05 94.49923706054688 94.49923706054688 -3.0517578125e-05 211.0700225830078 -3.0517578125e-05 Z"/></g></g></svg>